# xmcd
#
# Track frame offsets:
#  150
#  8092
#  26278
#  41692
#  62004
#  80775
#  103516
#  121006
#  143788
#  161834
#  184263
#  205089
#  231494
#  255175
#
# Disc length: 3728 seconds
#
# Revision: 0
# Processed by: cddbd v1.5PL3 Copyright (c) Steve Scherf et al.
# Submitted via: AltoMP3_Maker 3.0
#
DISCID=b30e8e0e
DTITLE=Oemar,Faziel - Dance Trax 5
DYEAR=1900
DGENRE=
TTITLE0=Intro
TTITLE1=Sare Zamane
TTITLE2=Dansie Chali Re Chaurie
TTITLE3=Pretty Woman
TTITLE4=Darwaja Khulla Chod Aye
TTITLE5=Na Ja Kahi Ab Naja
TTITLE6=Chali Chali
TTITLE7=Na Ja Kahi Ab Na Ja (Instr.)
TTITLE8=Fragm
TTITLE9=Fragm
TTITLE10=Fragm
TTITLE11=Fragm
TTITLE12=Fragm
TTITLE13=Fragm
EXTD=
EXTT0=
EXTT1=
EXTT2=
EXTT3=
EXTT4=
EXTT5=
EXTT6=
EXTT7=
EXTT8=
EXTT9=
EXTT10=
EXTT11=
EXTT12=
EXTT13=
PLAYORDER=
